<svg xmlns="http://www.w3.org/2000/svg" viewBox="0 0 920 420" role="img" aria-labelledby="title desc">
  <title id="title">HighLander WEB Department process flow</title>
  <desc id="desc">A four step process diagram from listening to prototype, building, and improving.</desc>
  <defs>
    <filter id="shadow" x="-15%" y="-20%" width="130%" height="150%">
      <feDropShadow dx="0" dy="14" stdDeviation="18" flood-color="#1b3022" flood-opacity=".12"/>
    </filter>
  </defs>
  <rect width="920" height="420" rx="30" fill="#f6f5f0"/>
  <path d="M152 214 H766" stroke="#d9c7aa" stroke-width="5" stroke-linecap="round" stroke-dasharray="4 18"/>
  <g transform="translate(64 94)" filter="url(#shadow)">
    <rect width="184" height="220" rx="22" fill="#fff" stroke="#e4ded4"/>
    <circle cx="92" cy="70" r="34" fill="#e6efe8"/>
    <path d="M72 76 c18 -28 40 -28 58 0" fill="none" stroke="#1b3022" stroke-width="7" stroke-linecap="round"/>
    <circle cx="76" cy="78" r="8" fill="#1b3022"/>
    <circle cx="128" cy="78" r="8" fill="#1b3022"/>
    <text x="92" y="136" text-anchor="middle" font-family="Outfit, Arial, sans-serif" font-size="18" font-weight="700" fill="#1b3022">LISTEN</text>
    <rect x="48" y="158" width="88" height="9" rx="5" fill="#d9c7aa"/>
    <rect x="38" y="178" width="108" height="9" rx="5" fill="#cbd5cc"/>
  </g>
  <g transform="translate(272 94)" filter="url(#shadow)">
    <rect width="184" height="220" rx="22" fill="#fff" stroke="#e4ded4"/>
    <circle cx="92" cy="70" r="34" fill="#fff1be"/>
    <rect x="62" y="54" width="60" height="42" rx="9" fill="#1b3022"/>
    <path d="M72 66 h40 M72 80 h28" stroke="#fff" stroke-width="5" stroke-linecap="round"/>
    <text x="92" y="136" text-anchor="middle" font-family="Outfit, Arial, sans-serif" font-size="18" font-weight="700" fill="#1b3022">PROTOTYPE</text>
    <rect x="34" y="158" width="116" height="9" rx="5" fill="#d9c7aa"/>
    <rect x="50" y="178" width="84" height="9" rx="5" fill="#cbd5cc"/>
  </g>
  <g transform="translate(480 94)" filter="url(#shadow)">
    <rect width="184" height="220" rx="22" fill="#fff" stroke="#e4ded4"/>
    <circle cx="92" cy="70" r="34" fill="#e6efe8"/>
    <path d="M66 78 h52 M78 56 h28 M78 98 h28" stroke="#1b3022" stroke-width="8" stroke-linecap="round"/>
    <text x="92" y="136" text-anchor="middle" font-family="Outfit, Arial, sans-serif" font-size="18" font-weight="700" fill="#1b3022">BUILD</text>
    <rect x="42" y="158" width="100" height="9" rx="5" fill="#d9c7aa"/>
    <rect x="34" y="178" width="116" height="9" rx="5" fill="#cbd5cc"/>
  </g>
  <g transform="translate(688 94)" filter="url(#shadow)">
    <rect width="184" height="220" rx="22" fill="#fff" stroke="#e4ded4"/>
    <circle cx="92" cy="70" r="34" fill="#1b3022"/>
    <path d="M72 70 l13 13 l28 -32" stroke="#fff" stroke-width="8" fill="none" stroke-linecap="round" stroke-linejoin="round"/>
    <text x="92" y="136" text-anchor="middle" font-family="Outfit, Arial, sans-serif" font-size="18" font-weight="700" fill="#1b3022">IMPROVE</text>
    <rect x="44" y="158" width="96" height="9" rx="5" fill="#d9c7aa"/>
    <rect x="32" y="178" width="120" height="9" rx="5" fill="#cbd5cc"/>
  </g>
</svg>
